PathFileType  4	(X/Y/Z) C:\Users\antoi\Documents\MyRepositories\mobilecap\ResultsAnalysis
DataRate	CameraRate	NumFrames	NumMarkers	Units	OrigDataRate	OrigDataStartFrame	OrigNumFrames
100.0	100.0	6	51	mm	100.0	34	265
Frame#	Time	r_knee			r_shank_antsup			r_ankle			r_calc			r_5meta			r_toe			L_knee			L_shank_antsup			L_ankle			L_calc			L_5meta			L_toe			r_sh2			r_sh3			r_sh4			L_sh2			L_sh3			r_thigh1			r_thigh2			r_thigh3			r_thigh4			r_thigh5			L_thigh1			L_thigh2			L_thigh3			L_thigh4			r.ASIS			r.PSIS			L.ASIS			L.PSIS			C7			R_Shoulder			L_Shoulder			R_Sternum			L_Sternum			R_humerus			R_elbow_med			R_elbow_lat			R_forearm			R_wrist_radius			R_wrist_ulna			L_humerus			L_elbow_med			L_elbow_lat			L_forearm			L_wrist_radius			L_wrist_ulna			R_HJC			L_HJC			R_HJC_reg			L_HJC_reg			
		X1	Y1	Z1	X2	Y2	Z2	X3	Y3	Z3	X4	Y4	Z4	X5	Y5	Z5	X6	Y6	Z6	X7	Y7	Z7	X8	Y8	Z8	X9	Y9	Z9	X10	Y10	Z10	X11	Y11	Z11	X12	Y12	Z12	X13	Y13	Z13	X14	Y14	Z14	X15	Y15	Z15	X16	Y16	Z16	X17	Y17	Z17	X18	Y18	Z18	X19	Y19	Z19	X20	Y20	Z20	X21	Y21	Z21	X22	Y22	Z22	X23	Y23	Z23	X24	Y24	Z24	X25	Y25	Z25	X26	Y26	Z26	X27	Y27	Z27	X28	Y28	Z28	X29	Y29	Z29	X30	Y30	Z30	X31	Y31	Z31	X32	Y32	Z32	X33	Y33	Z33	X34	Y34	Z34	X35	Y35	Z35	X36	Y36	Z36	X37	Y37	Z37	X38	Y38	Z38	X39	Y39	Z39	X40	Y40	Z40	X41	Y41	Z41	X42	Y42	Z42	X43	Y43	Z43	X44	Y44	Z44	X45	Y45	Z45	X46	Y46	Z46	X47	Y47	Z47	X48	Y48	Z48	X49	Y49	Z49	X50	Y50	Z50	X51	Y51	Z51	

34	0.33000000	-1116.24307	851.57996	-417.76994	-1098.21440	723.16460	-427.27091	-1227.55165	405.22799	-419.43845	-1296.96530	372.41009	-461.81484	-1092.56096	344.12303	-382.62905	-1060.05299	367.01034	-458.91385	-1139.97231	839.19474	-745.96817	-1109.08664	727.11118	-728.57343	-1249.41894	403.91781	-727.75186	-1312.71463	375.43924	-677.48067	-1109.89168	345.63163	-758.83599	-1076.26681	368.97276	-690.28102	-1115.27827	609.68756	-447.59365	-1156.27263	721.48410	-375.48691	-1164.48087	604.86028	-378.55194	-1188.49383	740.55341	-770.91659	-1187.72311	619.55118	-782.32861	-1014.03092	1082.05291	-442.81798	-1021.91359	971.16934	-455.64885	-1047.34750	942.59139	-400.47745	-1092.61228	1074.86934	-359.97044	-1097.48844	957.60865	-382.76709	-1060.27381	1092.63094	-767.39581	-1053.54748	955.24633	-751.15254	-1168.04287	1082.06967	-798.97827	-1162.57430	945.10051	-775.79156	-1037.51731	1344.85314	-442.10956	-1238.77739	1413.31937	-517.69355	-1049.54306	1333.48681	-706.57747	-1245.34148	1408.98135	-620.25249	-1125.47854	1898.32358	-578.89914	-1057.53086	1816.34196	-391.23670	-1054.30545	1834.29854	-758.61955	-998.00947	1797.61670	-554.56647	-1001.01649	1796.23282	-601.30738	-1075.91436	1646.55352	-316.45137	-1216.66146	1452.88356	-340.65574	-1178.36996	1470.27759	-270.76507	-1098.15274	1313.73972	-266.22958	-1076.00652	1192.78217	-261.36872	-1105.00952	1186.22281	-232.24540	-1083.26355	1661.00639	-843.63417	-1215.25010	1475.55881	-806.14528	-1182.70729	1484.43870	-880.27504	-1097.60969	1339.26221	-861.78527	-1073.00970	1224.30894	-883.64249	-1106.79409	1219.77135	-915.15451	-1135.15271	1280.31223	-470.40986	-1144.34813	1260.37778	-682.66946	-1125.21869	1279.31435	-471.55983	-1136.37961	1271.93844	-645.93759	
35	0.34000000	-1115.67935	851.53207	-417.59023	-1097.82093	722.94571	-427.31215	-1227.56663	405.21914	-419.38911	-1296.99028	372.41682	-461.78669	-1092.58168	344.09232	-382.47161	-1060.04437	366.97244	-458.85497	-1138.89395	838.85083	-746.08835	-1108.09200	726.76328	-728.60924	-1249.26548	403.89088	-727.61725	-1312.70776	375.46718	-677.39968	-1109.86155	345.61266	-758.71905	-1076.22179	368.86822	-690.17950	-1114.98427	609.53134	-447.43798	-1155.88879	721.64668	-375.32615	-1164.16814	604.83639	-378.41498	-1187.36565	740.34144	-770.99235	-1186.96575	619.38332	-782.43047	-1013.71073	1081.84570	-442.62325	-1021.34163	970.92072	-455.22292	-1047.09646	942.32055	-400.32419	-1092.41264	1074.79609	-359.94939	-1097.10196	957.33790	-382.79190	-1059.65122	1092.35206	-767.43040	-1052.77501	954.86153	-751.16900	-1167.41713	1081.46397	-798.68206	-1161.76759	944.66198	-775.94584	-1036.54533	1344.25597	-442.36943	-1237.37648	1413.86421	-518.08337	-1049.04219	1332.70781	-706.82824	-1244.22702	1409.52886	-620.28326	-1120.41070	1898.09376	-579.31144	-1052.89156	1815.59634	-391.72093	-1049.61322	1833.67135	-759.26016	-993.44914	1796.55732	-554.71787	-996.56377	1795.17515	-601.54913	-1072.80019	1646.14693	-316.64212	-1215.28505	1453.85020	-340.70014	-1177.03895	1470.98052	-270.71920	-1098.18201	1313.73839	-265.95919	-1077.15507	1192.55250	-260.75851	-1106.36606	1186.25960	-231.63913	-1080.11254	1660.64169	-843.98106	-1213.56038	1476.25225	-806.21111	-1181.20653	1484.85758	-880.31620	-1096.89212	1339.22641	-862.32600	-1072.95406	1224.32992	-884.61188	-1106.99435	1219.95950	-915.88845	-1134.63884	1280.30607	-470.54662	-1144.20652	1260.19677	-682.77341	-1124.57154	1279.19790	-471.55173	-1136.25954	1271.80185	-645.90712	
36	0.35000000	-1115.18362	851.36931	-417.54272	-1097.33483	722.80231	-427.27235	-1227.56407	405.23097	-419.36404	-1296.98070	372.42413	-461.74282	-1092.58567	344.05262	-382.42144	-1060.01581	366.94516	-458.83173	-1137.81842	838.47264	-746.21994	-1107.06958	726.37588	-728.64305	-1249.06849	403.85424	-727.57795	-1312.70996	375.42118	-677.27728	-1109.82748	345.58538	-758.58844	-1076.16705	368.79041	-690.09296	-1114.69002	609.45784	-447.30114	-1155.55140	721.78239	-375.15037	-1163.73189	604.83333	-378.15927	-1186.15803	740.13329	-771.27330	-1186.17125	619.16199	-782.55684	-1013.33168	1081.57338	-442.53525	-1020.83721	970.67531	-455.07487	-1046.83569	942.00905	-400.17033	-1092.05114	1074.64783	-359.88159	-1096.78472	957.07161	-382.87374	-1059.10590	1092.05572	-767.56091	-1052.05035	954.46418	-751.16181	-1166.87117	1080.89348	-798.57245	-1161.00891	944.12615	-776.15026	-1035.55050	1343.62231	-442.64023	-1235.94334	1414.40873	-518.35000	-1048.51960	1331.87651	-707.07781	-1243.06957	1410.05781	-620.32364	-1115.21765	1897.80564	-579.73115	-1048.04648	1814.82230	-392.05721	-1044.79145	1832.98469	-759.55799	-988.80531	1795.39363	-554.95310	-991.97695	1793.92382	-601.93384	-1069.58113	1645.63742	-316.95003	-1213.67031	1454.98486	-340.81524	-1175.61199	1471.77944	-270.65234	-1098.23723	1313.73338	-265.76884	-1078.23542	1192.38692	-260.21454	-1107.67210	1186.32126	-231.19552	-1076.83393	1660.27373	-844.46122	-1211.77053	1476.97596	-806.42214	-1179.59219	1485.35081	-880.54786	-1096.02152	1339.28086	-863.17310	-1072.89069	1224.32102	-885.54601	-1107.09147	1220.41760	-917.23999	-1134.09498	1280.27800	-470.65562	-1144.07128	1259.99279	-682.84677	-1123.92642	1279.06889	-471.56048	-1136.10892	1271.63096	-645.88744	
37	0.36000000	-1114.52042	851.05549	-417.73258	-1096.71533	722.75434	-427.18369	-1227.54959	405.25692	-419.34855	-1296.92782	372.47613	-461.69711	-1092.57882	343.99393	-382.42241	-1060.00561	366.88026	-458.81843	-1136.78051	838.11488	-746.41928	-1106.10265	725.95639	-728.60985	-1248.87577	403.80018	-727.53813	-1312.64346	375.44347	-677.30999	-1109.79854	345.55078	-758.54782	-1076.12314	368.72675	-690.07979	-1114.36005	609.37437	-447.26666	-1155.19541	721.82635	-375.08769	-1163.42134	604.85545	-377.94250	-1184.97691	739.91102	-771.63445	-1185.33669	618.79943	-782.60139	-1012.87650	1081.30418	-442.51798	-1020.27402	970.47480	-454.97088	-1046.39531	941.77796	-399.82309	-1091.66792	1074.56124	-359.79846	-1096.54143	956.80241	-382.99056	-1058.67382	1091.72169	-767.73084	-1051.36614	954.15477	-751.21106	-1166.44699	1080.56397	-799.33727	-1160.30685	943.52658	-776.32702	-1034.52497	1342.94400	-442.93692	-1234.55122	1415.09787	-518.35553	-1047.94336	1330.90674	-707.26344	-1241.79988	1410.62512	-620.35726	-1109.82578	1897.35188	-580.03197	-1043.01572	1814.10388	-392.21280	-1039.73059	1832.32574	-760.09867	-984.15283	1794.12386	-555.36736	-987.24059	1792.63459	-602.34312	-1066.25317	1645.11946	-317.16340	-1211.81913	1456.11410	-341.14004	-1174.14696	1472.51322	-270.67702	-1098.27007	1313.64194	-265.56362	-1079.25262	1192.24085	-259.77737	-1108.92415	1186.38247	-231.01102	-1073.41060	1659.86423	-844.93789	-1209.92336	1477.68162	-806.76718	-1177.77435	1486.15231	-881.41347	-1095.20239	1339.36792	-864.06760	-1072.75475	1224.31786	-886.45878	-1107.02661	1220.78267	-918.58681	-1133.56506	1280.27962	-470.65933	-1144.00598	1259.76364	-682.80574	-1123.45719	1279.03333	-471.65969	-1135.84026	1271.39262	-645.91405	
38	0.37000000	-1113.61020	850.66542	-417.95996	-1096.05381	722.71374	-427.15874	-1227.52503	405.26441	-419.32421	-1296.85903	372.57732	-461.66848	-1092.56455	343.92998	-382.37121	-1060.01403	366.77972	-458.79119	-1135.83004	837.76878	-746.65630	-1105.24074	725.55069	-728.60353	-1248.73828	403.72696	-727.44327	-1312.58777	375.45419	-677.35265	-1109.78507	345.49815	-758.62012	-1076.11473	368.62020	-690.09862	-1113.96682	609.21795	-447.29885	-1154.71487	721.88379	-375.12578	-1163.22609	604.88452	-377.93679	-1183.97035	739.67258	-771.86203	-1184.54791	618.39685	-782.59882	-1012.35042	1081.03643	-442.41719	-1019.68579	970.22564	-454.87052	-1045.77906	941.64772	-399.31446	-1091.36446	1074.46090	-359.77638	-1096.20760	956.57639	-383.01308	-1058.30655	1091.28587	-767.81814	-1050.67691	953.91862	-751.41706	-1166.04310	1080.32185	-800.31300	-1159.64350	942.99872	-776.50159	-1033.48491	1342.23045	-443.24687	-1233.10994	1415.85720	-518.32996	-1047.34217	1329.94821	-707.48852	-1240.46401	1411.27334	-620.43425	-1104.20498	1896.76416	-580.29944	-1037.90174	1813.32744	-392.46872	-1034.52636	1831.66140	-760.63260	-979.37063	1792.73967	-555.80915	-982.39589	1791.31773	-602.70947	-1062.80778	1644.62543	-317.25069	-1210.03095	1457.07933	-341.51817	-1172.64532	1473.13535	-270.82028	-1098.25971	1313.54556	-265.34783	-1080.25176	1192.03303	-259.40186	-1110.14538	1186.48727	-230.83959	-1069.89694	1659.35739	-845.30134	-1207.98751	1478.41676	-807.18560	-1175.76198	1487.15461	-882.81330	-1094.34987	1339.39921	-864.92589	-1072.53919	1224.25624	-887.29269	-1106.90693	1220.78561	-919.27835	-1133.04100	1280.29790	-470.69380	-1143.95212	1259.59353	-682.79837	-1123.01643	1279.00847	-471.80123	-1135.56345	1271.18798	-646.00195	
39	0.38000000	-1112.70613	850.34187	-417.95989	-1095.45004	722.61398	-427.20200	-1227.50527	405.25059	-419.33258	-1296.82117	372.68657	-461.66988	-1092.55671	343.84388	-382.33603	-1060.02237	366.67560	-458.75339	-1134.98896	837.43965	-746.92080	-1104.47953	725.23252	-728.70483	-1248.66421	403.68017	-727.38354	-1312.56713	375.43735	-677.35815	-1109.79054	345.43585	-758.72629	-1076.13116	368.48262	-690.10106	-1113.57407	609.03108	-447.28451	-1154.10516	722.08377	-375.08042	-1162.96353	604.92589	-378.05932	-1183.17638	739.48883	-772.04122	-1183.89553	618.10260	-782.66329	-1011.80709	1080.70472	-442.25762	-1019.01985	969.95363	-454.57599	-1045.13822	941.49591	-398.96719	-1091.14111	1074.21175	-359.85973	-1095.72374	956.42256	-382.93058	-1057.95418	1090.86611	-768.06207	-1050.02208	953.65141	-751.75708	-1165.61470	1079.92165	-800.55157	-1159.02027	942.55565	-776.67907	-1032.44667	1341.44594	-443.57873	-1231.54985	1416.49910	-518.53691	-1046.67900	1329.04843	-707.78822	-1239.08740	1411.90422	-620.59653	-1098.41167	1896.16291	-580.64644	-1032.69741	1812.39903	-392.88781	-1029.67341	1830.69142	-760.19972	-974.33216	1791.27955	-556.16927	-977.42728	1789.91849	-603.03205	-1059.27826	1644.12239	-317.35699	-1208.19661	1458.03211	-341.80522	-1171.02730	1473.77748	-270.92230	-1098.16034	1313.56931	-265.17562	-1081.17983	1191.82947	-258.96914	-1111.33354	1186.67249	-230.53289	-1066.32922	1658.80829	-845.67263	-1205.95166	1479.20032	-807.55895	-1173.72173	1487.98470	-883.94849	-1093.42258	1339.38547	-865.71835	-1072.29107	1224.19085	-888.18559	-1106.85437	1220.57227	-919.35529	-1132.48769	1280.24074	-470.87032	-1143.78149	1259.44183	-682.94579	-1122.43764	1278.86429	-471.95885	-1135.30139	1271.02277	-646.13105	
